<?xml version="1.0" encoding="UTF-8"?>
<svg id="Layer_2" data-name="Layer 2" xmlns="http://www.w3.org/2000/svg" viewBox="0 0 577.92 313.94">
  <defs>
    <style>
      .cls-1 {
        fill: #9daeca;
      }

      .cls-2 {
        fill: #2d406c;
      }

      .cls-3 {
        fill: #b2b7c7;
      }

      .cls-4 {
        fill: #c5d1ef;
      }

      .cls-5 {
        fill: #bbc9ed;
      }

      .cls-6 {
        fill: #172d5b;
      }

      .cls-7 {
        fill: #89a1c6;
      }

      .cls-8 {
        fill: #889ec3;
      }

      .cls-9 {
        fill: #a0b6e4;
      }

      .cls-10 {
        fill: #e5eaf8;
      }

      .cls-11 {
        fill: #9fb6e9;
      }

      .cls-12 {
        fill: #6376b0;
      }

      .cls-13 {
        fill: #c1d5f9;
      }

      .cls-14 {
        fill: #7694d8;
      }

      .cls-15 {
        fill: #9dadd4;
      }

      .cls-16 {
        fill: #c5d2f0;
      }

      .cls-17 {
        fill: #6a7c9f;
      }

      .cls-18 {
        fill: #979bd8;
      }

      .cls-19 {
        fill: #dfe9fc;
      }

      .cls-20 {
        fill: #7d94c4;
      }

      .cls-21 {
        fill: #93aae1;
      }

      .cls-22 {
        fill: #a2aab9;
      }

      .cls-23 {
        fill: #7385ab;
      }

      .cls-24 {
        fill: #a9b5d4;
      }

      .cls-25 {
        fill: #bdcded;
      }

      .cls-26 {
        fill: #acc3f3;
      }

      .cls-27 {
        fill: #bcc6e1;
      }

      .cls-28 {
        fill: #b8c6ea;
      }

      .cls-29 {
        fill: #a1b5e7;
      }

      .cls-30 {
        fill: #a3b6e3;
      }

      .cls-31 {
        fill: #2d4a83;
      }

      .cls-32 {
        fill: #7897dc;
      }

      .cls-33 {
        fill: #b2b7c6;
      }

      .cls-34 {
        fill: #aab9e4;
      }

      .cls-35 {
        fill: #a1b7e4;
      }

      .cls-36 {
        fill: #a2b8e6;
      }

      .cls-37 {
        fill: #889fcd;
      }

      .cls-38 {
        fill: #b2c4e8;
      }

      .cls-39 {
        fill: #7b9ae1;
      }

      .cls-40 {
        fill: #aec2f0;
      }

      .cls-41 {
        fill: #cedffe;
      }

      .cls-42 {
        fill: #bfceef;
      }

      .cls-43 {
        fill: #b3b7c7;
      }

      .cls-44 {
        fill: #adc0ee;
      }

      .cls-45 {
        fill: #bfcdee;
      }

      .cls-46 {
        fill: #7483a6;
      }

      .cls-47 {
        fill: #7387aa;
      }

      .cls-48 {
        fill: #8199c5;
      }

      .cls-49 {
        fill: #bbcbeb;
      }

      .cls-50 {
        fill: #7889b0;
      }

      .cls-51 {
        fill: #969dd8;
      }

      .cls-52 {
        fill: #8898cf;
      }

      .cls-53 {
        fill: #b4b8d4;
      }

      .cls-54 {
        fill: #adbad9;
      }

      .cls-55 {
        fill: #9099c1;
      }

      .cls-56 {
        fill: #d5dff3;
      }

      .cls-57 {
        fill: #c3c7e1;
      }

      .cls-58 {
        fill: #e5eaf9;
      }

      .cls-59 {
        fill: #8098d7;
      }

      .cls-60 {
        fill: #8292a9;
      }

      .cls-61 {
        fill: #7c9add;
      }

      .cls-62 {
        fill: #304b86;
      }

      .cls-63 {
        fill: #e2eaf9;
      }

      .cls-64 {
        fill: #9fb5e5;
      }

      .cls-65 {
        fill: #99afe1;
      }

      .cls-66 {
        fill: #aab9d9;
      }

      .cls-67 {
        fill: #8e9ebd;
      }

      .cls-68 {
        fill: #8a9cc1;
      }

      .cls-69 {
        fill: #a1b2df;
      }

      .cls-70 {
        fill: #8598db;
      }

      .cls-71 {
        fill: #9eb6e9;
      }

      .cls-72 {
        fill: #acb4d1;
      }

      .cls-73 {
        fill: #fefefe;
      }
    </style>
  </defs>
  <g id="Layer_1-2" data-name="Layer 1">
    <g>
      <path d="M72.11,187.32c0-.22,.11-.57-.02-.7-4.29-4.62-4.03-6.32,1.51-9.8,8.06-5.06,17.29-.67,21.03,10,1.97,2.62,1.98,5.86,2.71,8.87,.61,2.52,0,4.39-2.58,5.63-1.54,.74-3.33,1.37-4.33,3.02,1.9,1.52,4.59-.85,6.22,1.44-.69,9.65-6.02,17.04-13.82,19.17-1.44,.86-2.89,.8-4.36,.08-8.61-2.04-14.45-10.87-14.69-22.2-.71-4.44-.34-8.77,1.14-13.01,.72-5.72,4.64-2.08,7.19-2.5Z"/>
      <path d="M568.25,221.49c-7.64,9.25-17.84,13.55-29.77,13.98-23.25,.83-38.62,16.24-39.54,39.58-.79,19.81-14.55,35.51-33.17,37.83-1.49,1.1-3.21,.67-4.83,.67-136.21,0-272.41,.03-408.62-.05-6.26,0-12.6,1.33-18.8-.63C14.62,310.51,.05,293.67,0,274.14c-.06-19.02,14.35-36.06,32.53-38.48,2.57-1.59,5.41-.74,8.14-.92-.34-.37-.63-.73-.86-1.07-.12-.02-.24-.01-.38,.02-6.61,1.54-8.35-3.01-9.88-7.85-3.98-8.74-.41-16.63,7.8-17.21,5.95-.43,6.45,.03,6.55,6.04,4.26-4.43,8.24-2.94,12.87,4.84,3.99,3.94,5.68,8.67,4.89,14.26,.19,.22,.23,.46,.13,.72,5.95,.13,11.91,.26,17.86,.39h1.07c8.94-1.63,17.41-4.25,23.7-11.39,.64-.72,1.42-.75,2.24-.8,.47-9.95-1.5-19.7-2.6-29.51-.52-4.65,.38-6.35,5.2-5.94,1.78,.15,4.37,1.53,5.58-1.39-6.51-18.81-19.26-28.19-39.15-28.8-21.55-.67-38.23-17.86-38.19-39.36s16.77-38.7,38.37-39.14c12.15-.25,24.3-.05,36.45-.05,24.27,0,38.15-11.08,43.44-34.67q-.05-7.31-7.66-7.29h-3.48c-6.7,.01-6.74,.01-6.7-6.63,.05-8.19-.8-6.96,7.23-7.04,3.81-.03,7.62-.14,11.42,.06,1.9,.09,3.11-.6,4.13-2C167.74,7.43,179.28,.34,194.11,.25c59.8-.34,119.61-.3,179.41-.05,20.84,.09,37.64,16.66,38.21,37.24,.34,12.32,4.4,22.69,13.23,31.23,14.29-.04,28.59-.01,42.89-.19,2.95-.03,3.76,1.06,3.56,3.79-.19,2.47-.02,4.98,0,7.47,.27,.18,.38,.43,.34,.75,15.35,4.42,26.39,18.61,27.11,35.11,.28,6.37,.89,12.65,3.8,18.42,7.53,14.9,19.75,22.22,36.42,22.75,16.31,.51,28.37,8.4,35.04,23.14,6.67,14.77,4.5,29.01-5.86,41.58Z"/>
      <path class="cls-10" d="M568.25,221.49c-7.64,9.25-17.84,13.55-29.77,13.98-23.25,.83-38.62,16.24-39.54,39.58-.79,19.81-14.55,35.51-33.17,37.83-2.3,.84-2.69-.37-2.24-2.21,.61-2.52,.32-4.61-2.27-5.86-4.41-1.38-8.92-.49-13.37-.61-1.91-.05-3.41-.2-4.52-.5-1.14-.31-1.88-.79-2.24-1.51-.67-1.3-.11-3.39,1.45-6.72,6.43-13.69,12.5-27.54,18.71-41.32,.41-.91,.75-1.85,1.11-2.76,0-.15,0-.29,0-.43,0-.76-.19-1.23-.47-1.52-.66-.63-1.86-.29-2.8-.16h-.02c-.18,.03-.35,.04-.51,.04h-.47c-14.3-.11-28.61-.07-42.92-.07-1,0-2,0-3,.01-4.69,.01-9.38,.04-14.07-.02-.62,0-1.25-.01-1.87-.02-2.72-.05-4.18,.99-5.26,3.51-2.24,5.25-4.59,10.46-6.96,15.66-3.67,8.01-7.41,15.98-10.98,24.03-.06,.12-.11,.24-.17,.36-.03,.07-.06,.14-.09,.22-.21,.46-.42,.92-.62,1.38-.71,1.6-1.51,3.15-2.8,4.29-.41,.36-.86,.68-1.39,.94-.04,.03-.08,.05-.12,.07-.47,.21-.97,.32-1.47,.39-.23,.03-.46,.05-.69,.06-.12,.01-.23,.01-.35,.02-5.23,.08-10.46,.03-15.7,.04-1.8,0-3.61-.1-5.16,1.07-4.75,3.88-7.59,4-10.7,.34-.12-.15-.24-.3-.37-.46,0-.01-.01-.03-.01-.04-.42-1.62-.3-3.27-.33-4.92-.07-3.84,1.66-6.18,5.43-7.28,6.54-1.92,13.05-3.96,19.36-6.54,9.4-3.84,11.47-7.29,9.64-17.36-3.27-18.01-8.19-35.63-13.45-53.13-4.27-14.23-13.83-23.14-28.73-25.85-.99-.18-1.93-.51-2.86-.89-3.67-1.63-7.55-.68-11.33-.9-.53-.03-1.02-.07-1.46-.12-.96-.11-1.72-.28-2.32-.56-1.62-.72-2.13-2.18-2.32-5.25-.21-3.31-.05-6.64-.08-9.96-.04-3.88,.45-7.02,5.23-8.25,3.07-.79,4.24-4,4.23-7.24,0-1.48-.36-2.96-.22-4.46,.03-.27,.06-.54,.1-.81,.05-.36,.11-.73,.18-1.09,.65-3.61,1.99-7.07,2.72-10.67,.78-3.86,.62-7.57-.35-11.32-1.61-6.18-3.62-7.79-10.1-7.8-1.88,0-3.59-.52-5.32-1.1-5.52-1.86-11.12-3.42-16.93-4.03-4.85-.51-9.72-.45-13.95,2.39-7.01,4.73-7.65,10.91-2.19,19.59l.33,.51c.08,.13,.17,.27,.26,.4,1.13,2.13,1.21,4.44,1.24,6.77,.04,3.47,.02,6.94,.02,10.41,.01,9.45,2.08,18.02,10.14,24.08,.02,.03,.03,.07,.05,.1,.1,.21,.19,.41,.26,.62,.27,.75,.36,1.52,.36,2.3,0,.3-.02,.6-.04,.9-.01,.13-.02,.27-.03,.4-.16,1.69-.82,2.72-1.84,3.33-.48,.3-1.05,.51-1.69,.63-.5,.11-1.03,.18-1.6,.21-3.62,.22-7.29-.53-10.83,.68-3.23,1.39-6.83,1.17-10.15,2.25-8.45,2.76-14.47,8.29-18.91,15.91-1.02,1.75-1.6,4.85-4.41,4.61-.42-.03-.9-.15-1.44-.35-1.27-3.63-1.58-7.44-1.86-11.21-.52-6.86-1.38-7.81-8.51-7.81-32.62-.01-65.23,0-97.85-.02-2.58-.01-5.47,.62-7.05-2.42-6.51-18.81-19.26-28.19-39.15-28.8-21.55-.67-38.23-17.86-38.19-39.36s16.77-38.7,38.37-39.14c12.15-.25,24.3-.05,36.45-.05,24.27,0,38.15-11.08,43.44-34.67,.07-.15,.2-.3,.21-.45q.86-9.17,10.5-9.18c2.49,0,4.99,.05,7.48-.06,2.35-.1,4.47-.64,4.36-3.57-.11-2.74-.55-5.42-4.11-5.86-2.81-.35-5.66,.01-8.46-.33-2.2-.27-4.93-.02-5.04-3.45C167.74,7.43,179.28,.34,194.11,.25c59.8-.34,119.61-.3,179.41-.05,20.84,.09,37.64,16.66,38.21,37.24,.34,12.32,4.4,22.69,13.23,31.23-2.34,2.62-5.51,1.96-8.42,1.97-24.11,.07-48.22,.04-72.33,.04-1.99,0-3.99-.03-5.98,.13-1.56,.12-3.18,.39-3.24,2.34-.07,2.23,1.65,2.59,3.42,2.72,1.99,.14,3.98,.11,5.98,.11,38.58,0,77.16,0,115.73,.01,2.16,0,4.35-.17,6.48,.2,1.69,.3,3.84,.16,4.09,2.72-.01,.01-.03,.02-.04,.04-.04,.03-.07,.06-.11,.09-2.63,2.26-5.88,1.61-8.91,1.61-38.96,.05-77.93,.02-116.89,.04-11.11,.01-10.24-.61-10.25,10.36-.04,25.31-.04,50.61,0,75.92,.01,7.75,.18,7.94,7.73,7.95,39.96,.03,79.93,.03,119.89,0,7.35-.01,7.59-.24,7.6-7.58,.06-26.14-.01-52.28,.06-78.42,0-2.9-.64-6.08,1.97-8.43,15.35,4.42,26.39,18.61,27.11,35.11,.28,6.37,.89,12.65,3.8,18.42,7.53,14.9,19.75,22.22,36.42,22.75,16.31,.51,28.37,8.4,35.04,23.14,6.67,14.77,4.5,29.01-5.86,41.58Z"/>
      <path class="cls-73" d="M471.74,80.49c-.05,29.64-.1,59.28-.15,88.92q-.02,7.37-7.5,7.37c-41.64,.01-83.28,.01-124.92,0-6.45,0-6.54-.08-6.54-6.3-.01-28.65,.1-57.29-.12-85.93-.03-4.73,1.46-5.79,5.94-5.77,43.97,.16,87.94,.1,131.91,.11,.11,.01,.2,.03,.29,.06,.37,.11,.62,.37,.75,.79,.27,.18,.38,.43,.34,.75Z"/>
      <path class="cls-71" d="M237.99,275.89c-.04,.08-.1,.16-.17,.23h0c-2.33,1.64-5.03,1.29-7.63,1.34-8.55,.17-17.11-.3-25.65,.43-.26,.02-.52,.04-.78,.07-.38,.03-.75,.07-1.13,.11-6.54-1.11-13.32,.51-19.74-1.79-.11-.1-.21-.21-.29-.31-.04-.03-.06-.06-.09-.09-.01-.02-.03-.03-.04-.05-.02-.02-.03-.04-.04-.06-1.58-1.93-1.24-4.18-.65-6.43,.47-1.8,.84-3.63,1.23-5.45,.01-.01,.01-.02,.01-.04,.36-1.73,.74-3.45,1.22-5.15,.13-.47,.28-.94,.43-1.41,1.05-3.23,.23-5.13-3.58-5.1-6.96,.07-13.91,.03-20.87,.02-1.07,0-1.9,.21-2.58,.67-.76,.49-1.34,1.29-1.87,2.41-.08,.18-.16,.35-.23,.53-1.58,3.72-1.4,7.73-2.37,11.53-.5,1.93-.85,3.86-2.01,5.53-.21,.11-.42,.22-.63,.32-.09,.05-.18,.09-.27,.13-1.03,.48-2.1,.83-3.18,1.07-.01,0-.02,0-.03,.01-1.26,.28-2.54,.44-3.83,.53-.13,.02-.27,.03-.41,.03-1.25,.08-2.51,.1-3.77,.13h-.11c-.41,.01-.83,.02-1.24,.03-2.27,.07-4.43,.32-6.51,1.01-.71,.22-1.41,.5-2.11,.84-4.25,.79-8.54,.58-12.82,.34-2.81-.15-4.77-1.56-5.11-4.44-1.11-9.31-3.31-18.51-2.92-27.97,.26-.76,.55-1.51,.84-2.26,.15-.37,.29-.73,.44-1.1,.93-2.36,1.83-4.74,1.95-7.46,.15-3.53-.81-5.72-4.02-6.99-.06-.07-.11-.14-.16-.21-.99-1.26-1.39-2.64-.61-4.2,.47-9.95-1.5-19.7-2.6-29.51-.52-4.65,.38-6.35,5.2-5.94,1.78,.15,4.37,1.53,5.58-1.39,1.92,1.36,4.13,1.03,6.28,1.03,32.94,.01,65.88,0,98.83,.01,8.69,0,9.11,.63,9.81,9.16,.32,3.87,.27,7.88,1.79,11.61,3.16,4.51,1.85,9.87,2.65,14.81,1.14,7.03,1.12,14.22,2.29,21.28,.04,.28,.09,.55,.14,.83,.01,.11,.02,.23,.04,.34,.84,8.04,1.53,16.1,2.44,24.14,.26,2.35,.43,4.76-1.12,6.83Z"/>
      <path class="cls-22" d="M465.77,312.88c-1.49,1.1-3.21,.67-4.83,.67-136.21,0-272.41,.03-408.62-.05-6.26,0-12.6,1.33-18.8-.63,.57-.92,1.49-1.46,2.48-1.45,3.56,.05,5.26-1.53,5.95-5.12,.56-2.88,3.39-3.89,6.06-4.52,4.13-.98,8.33-.72,12.53-.62,.29,.01,.59,.01,.88,.02,.11,0,.22,0,.33,0,12.42-.41,24.83-.45,37.24-.02,.21,.01,.43,.01,.64,.02,.08,0,.17,0,.25-.01,14.62-.28,29.22-.73,43.82,.27,.34,.19,.68,.36,1.02,.52,.16,.08,.33,.16,.5,.23,.14,.06,.28,.12,.43,.17,2.23,.88,4.59,1.19,7.06,.95,7.99-.78,16.05,.87,24-.89,.02,0,.05,0,.07-.01,7.45-.29,14.89-.56,22.33-1.01,.4-.02,.81-.04,1.21-.07,.15,.02,.31,.03,.46,.04,3.36,.26,6.49-1.21,9.8-1.5,.02,0,.04-.01,.06-.01,.1-.01,.21-.02,.32-.02,.14-.01,.27-.02,.41-.02,.15,.12,.3,.22,.45,.31,1.47,.92,3.16,.89,4.8,.84,21.66-.7,43.28,1.97,64.9,.85,13.22-.68,26.38,1.02,39.55-.2,.1-.01,.21-.02,.31-.03,.4,.05,.8,.09,1.21,.12,3.64,.36,7.27,.28,10.85-.6,.35-.08,.71-.18,1.06-.28,3.16,3.36,6.53,2.91,8.09-1.08,7.55-1,15.12-.41,22.69-.34h.22s.07,.06,.11,.09c.27,.21,.54,.4,.81,.58,2.34,1.53,4.92,1.96,7.87,1.92,20.92-.28,41.86-.59,62.74,.08,1.36,.05,2.73,.08,4.1,.12,.48,.01,.96,.03,1.44,.04,3.65,.1,7.33,.22,11,.48,2.99,.21,5.97,.51,8.93,.98,3.07,1.65,4.21,4.02,2.35,7.18-.83,1.42,.08,1.6,.92,2.01Z"/>
      <path class="cls-10" d="M80.96,262.7c.13,.91,.16,1.82-.19,2.73-.04,.11-.08,.22-.13,.32-.03,.06-.06,.12-.1,.18-.03,.06-.06,.13-.1,.19-.02,.04-.04,.07-.07,.1-1.37,2.04-3.58,2.05-5.69,2.14-3.66,.15-7.33,0-10.99,.07-5.98,.1-7.36,1.9-5.89,7.68,.17,.64,.52,1.21,.84,1.8,.09,.15,.17,.3,.24,.46,.06,.15,.12,.31,.17,.46,2.59,6.71,2.23,13.86,2.96,20.84,.05,.53-.05,1.03-.26,1.5-.24,.57-.62,1.11-1.04,1.6-4.58,.41-9.19-.28-13.77,.76-3.15,.71-4.98,2.55-4.22,5.49,1.06,4.1-1.16,3.84-3.8,3.75-1.8-.06-3.6,.06-5.4,.1C14.62,310.51,.05,293.67,0,274.14c-.06-19.02,14.35-36.06,32.53-38.48,3.17-.82,5.78-.41,8.53,1.89,4.64,3.91,7.89,3.43,12.96-.89,.04-.03,.08-.06,.13-.08,.09-.05,.19-.08,.3-.1,.77-.15,1.85,.21,2.14-.74,.01-.03,.02-.07,.02-.11,.05-.16,.06-.36,.05-.6,1.44-1.38,2.88-2.67,5-1.26,.19,.22,.23,.46,.13,.72,5.75,1.73,11.65,.29,17.45,.84h.01c.14,.06,.27,.13,.38,.21,.32,.19,.56,.42,.76,.68,.24,.32,.4,.7,.49,1.1,.11,.41,.14,.85,.14,1.29-.01,1.47,.03,2.94,.09,4.41,.06,1.93,.14,3.86,.16,5.79,.02,2.75-.1,5.48-.61,8.19-.05,.3-.11,.59-.17,.88-.36,1.64,.23,3.24,.47,4.82Z"/>
      <path class="cls-58" d="M150.32,278.7c-.57,6.28-2.36,12.34-3.29,18.55-.05,.32-.1,.63-.14,.95-.06,.16-.12,.32-.17,.49v.02c-.03,.07-.06,.14-.08,.22-.08,.26-.16,.52-.24,.79-.21,.72-.45,1.43-.87,2.05-.09,.14-.2,.28-.31,.41-.16,.2-.35,.37-.57,.54-14.99,.01-29.98,.01-44.96,.02,0-.01-.01-.01-.01-.02-.3-.52-.52-1.04-.69-1.57-1.07-3.28,.07-6.66,.41-9.9,.44-4.17,1.35-8.33,2.36-12.42,.01-.03,.01-.05,.02-.08,.08-.21,.16-.41,.26-.61,.31-.71,.71-1.39,.98-2.11,2.14-5.77,.93-7.52-5.3-7.61-3.99-.07-7.99,.11-11.97-.09-2-.1-4.27,.16-5.38-2.11-.04-.06-.06-.11-.08-.17-.03-.04-.04-.08-.06-.12,0-.06-.01-.12-.01-.18-.34-4.71-.69-9.54,.15-14.08,.96-5.21-.97-10.35,.02-15.45,.09-.44,.19-.89,.33-1.34,8.94-1.63,17.41-4.25,23.7-11.39,.64-.72,1.42-.75,2.24-.8,.64,1.28,1.17,2.59,.99,4.08-.08,.11-.15,.22-.22,.33-3.18,4.6-3.18,6.34,.56,10.84,.96,1.17,1.33,2.36,1.51,3.61,.1,.72,.14,1.45,.19,2.21-.17,9.97,2.43,19.66,3.04,29.55,.14,2.32,1.69,2.53,3.48,2.52,4.48-.02,8.97-.03,13.45-.04,3.05-.7,6.16-.66,9.27-.69h.11c1.25-.01,2.51-.03,3.77-.13,.14,0,.28-.01,.41-.03,1.05-.09,2.09-.22,3.13-.44,.24-.05,.48-.08,.7-.09,.01-.01,.02-.01,.03-.01,2.15-.12,3.5,1.45,3.24,4.3Z"/>
      <path class="cls-9" d="M471.41,72.27c-.19,2.47-.02,4.98,0,7.47-.29-.24-.57-.47-.86-.7-.06-.05-.12-.1-.18-.15-1.62-1.8-3.76-.91-5.63-.92-42.25-.05-84.5-.06-126.75,.01-3.46,.01-5.55-.3-5.47-4.72,.07-4.02,1.71-4.58,5.12-4.57,22.79,.12,45.58,.08,68.37,.07,6.32,0,12.64-.06,18.96-.09,14.29-.04,28.59-.01,42.89-.19,2.95-.03,3.76,1.06,3.56,3.79Z"/>
      <path class="cls-56" d="M172.4,35.89c-3.47-.25-6.99,.12-10.47-.09-3.58-.22-5.93,.47-5.27,4.8,.17,1.13,.07,2.34-.9,3.23q-.05-7.31-7.66-7.29h-3.48c-6.7,.01-6.74,.01-6.7-6.63,.05-8.19-.8-6.96,7.23-7.04,3.81-.03,7.62-.14,11.42,.06,1.9,.09,3.11-.6,4.13-2,3.57,3.85,8.15,1.34,12.23,1.83,3.09,.37,5.98,.12,6.74,4.2,1.4,7.57,.85,9.52-7.27,8.93Z"/>
      <path class="cls-32" d="M94.63,186.82c.04,2.19-1.54,3.24-3.16,3.98-6.03,2.73-9.31,6.93-9.63,12.79-.03,.53-.03,1.08,0,1.63,.02,.8,.11,1.62,.23,2.48,.12,.8-.02,1.64-.21,2.45-.23,.69-.55,1.29-1.15,1.68-.01,.01-.03,.02-.04,.03-.08,.04-.16,.09-.25,.13-2.42-.89-2.16-3.09-2.27-4.98-.21-3.61-.01-7.24-.1-10.86-.11-4.59-.95-5.35-5.59-5.32-2.55,.02-5.26,1.15-7.53-1.01,.72-5.72,4.64-2.08,7.19-2.5,0-.22,.11-.57-.02-.7-4.29-4.62-4.03-6.32,1.51-9.8,8.06-5.06,17.29-.67,21.03,10Z"/>
      <path class="cls-21" d="M82.83,224.95c-1.44,.86-2.89,.8-4.36,.08,1.09-7.86-2.4-13.1-9.21-16.7-2.27-1.21-4.47-2.86-5.48-5.5-.71-4.44-.34-8.77,1.14-13.01,3.9,.41,7.66-.9,11.69-.52,3.11,.3,2.92,1.35,3.07,3.41,.48,6.35-1.04,12.8,.98,19.06,.01,.02,.03,.04,.04,.06,2.93,4.01,1.08,8.8,2.13,13.12Z"/>
      <path class="cls-5" d="M96.65,205.78c-.69,9.65-6.02,17.04-13.82,19.17-2.21-.43-2.16-2.1-2.15-3.8,.02-3.1-.01-6.19-.02-9.29v-.09c.02-.66,.04-1.32,.06-1.99,0,0,.01-.01,.01-.02,.79-1.2,.34-2.57,.46-3.86,.09-.88,.32-1.66,.65-2.31,1.05-2.03,3.11-2.8,4.97-1.1,3.05,2.76,6.46,2.55,9.84,3.29Z"/>
      <path class="cls-65" d="M58.55,238.88c-.16,.13-.32,.25-.48,.38-1.13-.83-2.25-1.66-3.38-2.5l-.54-.18c-3.16-1.18-4.89-3.89-6.64-6.57-.01-.02-.02-.03-.03-.05-.28-.61-.62-1.18-.99-1.71-1.8-2.56-4.45-4.38-6.44-6.78-1.2-1.44-2.37-2.99-1.05-4.88,1.16-1.65,2.51-3.24,4.9-1.92,4.26-4.43,8.24-2.94,12.87,4.84,1.23,5.18,.26,10.35-.11,15.52-.02,.2-.04,.4-.05,.6,0,.05-.01,.09-.01,.14,.65,1.04,1.3,2.07,1.95,3.11Z"/>
      <path class="cls-14" d="M48.69,229.87c-.44,.13-.84,.15-1.21,.09-.93-.14-1.67-.78-2.42-1.38-.11-.09-.23-.18-.35-.27-.1-.12-.2-.23-.3-.34-2.14-2.26-4.74-2.56-7.76-1.86-2.33,.54-4.81,1.62-7.1-.27-3.98-8.74-.41-16.63,7.8-17.21,5.95-.43,6.45,.03,6.55,6.04-5.65,2.44-5.65,2.84-1.62,7.25,2.29,2.5,5.67,4.19,6.41,7.95Z"/>
      <path class="cls-21" d="M96.65,205.78c-3.4,.1-6.65,.29-9.79-1.93-2.3-1.62-4.47-1.4-5.03,1.37-.08,.41-.13,.87-.14,1.39-.02,1.14,.04,2.31-.96,3.15,0,.01-.01,.02-.01,.02h0c-2-10.52,2.04-17.6,12.1-21.3,.72-.26,1.22-1.1,1.82-1.66,1.97,2.62,1.98,5.86,2.71,8.87,.61,2.52,0,4.39-2.58,5.63-1.54,.74-3.33,1.37-4.33,3.02,1.9,1.52,4.59-.85,6.22,1.44Z"/>
      <path class="cls-45" d="M78.47,225.03c-8.61-2.04-14.45-10.87-14.69-22.2,4,2.85,8.05,5.64,11.99,8.58,4.48,3.33,5.33,7.96,2.7,13.62Z"/>
      <path class="cls-28" d="M54.69,236.76c-3.34,5.98-9.49,7.11-15.11,1.6-2.4-2.35-4.55-2.24-7.05-2.7,2.57-1.59,5.41-.74,8.14-.92-.34-.37-.63-.73-.86-1.07-1.2-1.79-.84-3.25,1.94-4.32,.92-.36,1.73-1,2.66-1.38,.4-.16,.82-.28,1.28-.3,.27,.19,.53,.39,.8,.58,.73,.54,1.47,1.08,2.2,1.62,1.92,2.21,3.84,4.41,5.76,6.61,.08,.09,.16,.19,.24,.28Z"/>
      <path class="cls-65" d="M45.69,227.67c-.18,.33-.39,.63-.63,.91-1.33,1.62-3.36,2.37-5.33,3.54-.46,.97,5.2,.49,.94,2.62-.03-.65-.37-1.03-.86-1.07-.12-.02-.24-.01-.38,.02-6.61,1.54-8.35-3.01-9.88-7.85,2.61-.39,5.39-.35,7.81-1.27,3.93-1.49,6.38-.14,8.33,3.1Z"/>
      <path class="cls-4" d="M61.66,233.77c-1.69,.67-3.38,1.33-5.06,2-.01-.01-.01-.02-.01-.03-2.62-4.36-.2-8.93-.49-13.39-.06-.93,.43-1.9,.67-2.84,3.99,3.94,5.68,8.67,4.89,14.26Z"/>
      <path class="cls-3" d="M82.86,245.52c-.73,1.08-1.24,2.18-1.59,3.29-.85,2.67-.79,5.42-.61,8.19,.13,1.91,.32,3.81,.3,5.7-.01,.92-.06,1.83-.19,2.73-.01,.11-.02,.21-.04,.32-.06,.08-.12,.14-.19,.18-.08,.08-.17,.11-.25,.12-.17,.03-.34-.07-.51-.3-.22-2.06,.38-4.38-1.99-5.72-.34-.2-.72-1.06-.59-1.22,5.45-6.84,1.12-14.75,2.46-22.02,.06-.31-.03-.65-.05-.98-.25-.17-.37-.33-.37-.48,0-.05,.02-.11,.05-.16,.12-.19,.24-.29,.36-.29h1.07c.25,.77,.25,1.6,.16,2.44-.2,1.97-.84,4.04,.23,5.7,.38,.62,1,1.19,1.97,1.67,.06,.03-.06,.6-.22,.83Z"/>
      <path class="cls-4" d="M79.65,234.88c0,.22,0,.44-.02,.66-.01,.09-.01,.18-.02,.27-4.46-.02-8.92,.02-13.37-.07-1.55-.03-3.39,.63-4.45-1.25,5.95,.13,11.91,.26,17.86,.39Z"/>
      <path class="cls-39" d="M334.5,300.81c-3.39,4.33-7.72,2.9-11.97,1.94-1.68-1.95-4.93-1.96-5.88-4.84-.35-1.06-.71,.04-.98,.15-9.15,3.66-18.47,2.6-27.82,1.11-.63-3.38,2.26-2.39,3.79-2.94,1.66-.61,3.97-.42,3.91-2.94-.07-2.61-1.64-4.4-4.24-4.78-4.91-.73-9.56-.54-13.09,3.88-2.15,2.7-4.38,5.39-7.32,7.36-3.42,.89-6.81,1.08-10.15-.31-2.1-1.57-2.8-4.07-4.02-6.21-.68-1.2-1.04-2.6,.21-3.64,1.14-.95,2.49-.62,3.79-.11,2.3,.9,2.92,3.41,4.68,5.23-.39-6.52-1.5-7.77-7.11-8.31-.99-.1-1.99-.11-2.98-.26-5.83-.84-7.05-2.17-7.08-8.08-.11-16.31,.12-32.62-.12-48.9-.1-.42-.07-.9-.31-1.31-.19,.36-.09,.76-.18,1.13-.17,.76-.18,1.54-.34,2.31-2.27,4.53-5.91,8.1-8.71,12.26-.62,.92-1.53,1.73-2.88,1.26-3.15-5.76-1.7-12.26-2.81-18.37-1.12-6.13-.93-12.5-1.31-18.77,5.17-8.96,10.66-17.47,21.05-21.49,3.65-1.41,7.59-.59,11.04-2.38,4.9-1.08,9.86-.27,14.78-.47,2.28-.09,3.45,1.71,4.84,3.11,6.62,6.71,14.53,6.68,20.63-.33,1.82-2.09,3.67-3.11,6.4-2.84,4.39,.43,8.86-.71,13.21,.65,4.25,1.19,8.61,1.7,12.69,3.79,11.4,5.84,17.61,15.48,20.69,27.38,4.33,16.71,9.24,33.28,12.45,50.26,1.88,9.92-.37,14.3-9.69,17.88-6.36,2.44-12.75,4.93-19.32,6.65-4.6,1.2-6.48,3.33-5.72,7.95,.16,.96-.05,1.99-.1,2.99Z"/>
      <path class="cls-71" d="M462.5,303.69c-29.66,.01-59.31,.04-88.97,0-3.24,0-6.92,.51-7.92-4.04-.37-.21-.49-.4-.35-.58,.13-.18,.26-.26,.39-.26,.65,0,1.31,0,1.96,0,4.4,.34,4.23-3.69,5.3-6.04,5.81-12.66,11.61-25.32,17.36-38.01,1.86-4.1,4.56-5.59,8.93-5.56,19.64,.13,39.29,.02,58.93,.11,2.07,0,4.9-.9,5.57,2.53-5.91,14.76-12.74,29.12-19.44,43.53-3.48,7.48-3.57,7.28,4.5,7.51,4.58,.13,9.26-1.11,13.74,.81Z"/>
      <path class="cls-25" d="M186.63,61.81c1.35-1.42,3.11-.94,4.72-.94,17.47-.03,34.94,.11,52.41-.12,4.13-.05,5.01,1.42,4.97,5.19-.16,17.63-.18,35.27,0,52.9,.05,4.31-1.43,6.01-5.72,5.99-17.47-.1-34.94-.08-52.41,0-3.17,.01-5.02-.74-5-4.42,.09-18.63,.04-37.26,.04-55.89,0-1.02,.12-2,.98-2.7,2.04,2.18,1.75,4.92,1.76,7.56,.04,14.46,.01,28.93,.03,43.39,0,1.6-.21,3.24,.44,5.1,2.28-2.51,1.98-5.24,2-7.82,.1-10.14,.03-20.28,.04-30.42,.02-11.84,.67-12.51,12.3-12.53,10.14-.02,20.28,.06,30.43-.04,3.11-.03,6.28-.09,8.92-2.75-1.71-1.1-3.39-.68-4.96-.68-14.47-.04-28.93,0-43.4-.04-2.63,0-5.38,.28-7.56-1.76Z"/>
      <path class="cls-49" d="M178.57,90.91c1.59,1.27,1.03,3.05,1.03,4.64,.04,17.12-.11,34.25,.11,51.37,.06,4.6-1.42,6.06-6.02,6-17.46-.22-34.92-.07-52.38-.11-1.59,0-3.38,.56-4.65-1.02,3.65-4.71,4.51-10.07,4.35-15.93-.27-9.64-.17-19.29-.04-28.94,.12-8.9,2.87-11.69,11.67-11.81,9.48-.13,18.97-.22,28.45,.03,6.29,.17,12.26-.3,17.48-4.25Z"/>
      <path class="cls-40" d="M323.5,183.92c-2.15-.04-4.31-.02-6.46-.13-5.28-.29-10.04-.55-13.47,5.24-3.34,5.64-16.98,5.77-20.97-.84-2.41-3.99-5.69-4.93-10-4.45-2.95,.32-5.96,.06-8.94,.05,3.85-1.99,7.98-.72,11.97-.92,2.4-.12,4.23-.35,4.21-3.3,2.4-2.02,5.47-2.05,7.66-2.81-2.17,.21-5.07,1.3-7.61-.91-10.26-4.18-10.36-13.45-11.19-22.34-.58-6.2,1.12-12.53-1.05-18.64,1.3-3.08,3.8-3.5,6.6-2.72,6.34,1.77,12.42,.79,18.55-1.15,7.25-2.3,11.12,.62,11.41,8.25,.09,2.47-.24,4.96,.39,7.83,1.85-1.06,3.29-2.73,5.57-2.57,2.37,.17,4.02,1.32,5.36,3.13,.27,3.84,1.97,7.77-.95,11.38-1.15,1.42-2.29,3.75-3.93,3.42-4.97-1-3.96,2.24-4,4.88-.03,2.15,0,4.3,0,6.44,0,9.01,0,8.9,8.82,9.11,2.68,.06,5.62-1.1,8.05,1.06Z"/>
      <path class="cls-6" d="M315.52,147.64c-1.8,.47-2.42-1.55-3.85-1.82-2.32-.44-4.88-1.12-4.99,2.59-.05,1.78-.85,2.3-2.48,2.14-1.72-.17-1.54-1.45-1.55-2.57-.04-3.14,0-6.29-.02-9.43-.02-6.42-2.69-8.34-8.75-6.18-6.38,2.28-12.91,3.32-19.45,1.25-2.78-.88-4.77-.51-6.79,1.25-4.25-4.14-6.43-8.79-3.93-14.77,2.73-6.54,7.72-9.78,14.64-10.19,8.29-.48,16.12,1.76,23.89,4.29,1.53,.5,2.9,1.25,4.75,.99,6.29-.87,8.69,.76,10.81,6.72,2.33,6.56,1.71,13.08-.32,19.57-.64,2.06-1.3,4.11-1.95,6.16Z"/>
      <path class="cls-64" d="M178.57,90.91c-2.73,4.56-6.56,6.24-12.03,6.05-11.62-.41-23.27-.14-34.91-.12-7.06,.01-8.94,1.85-8.95,8.76-.03,12.13-.11,24.27,.05,36.4,.06,4.73-1.98,7.81-6.06,9.8-.03-18.93,0-37.86-.13-56.78-.02-3.21,.96-4.36,4.25-4.33,19.26,.17,38.52,.17,57.78,.22Z"/>
      <path class="cls-38" d="M463.71,251.84c-1.47-1.59-3.42-1.04-5.18-1.04-19.97-.03-39.94,.03-59.92-.08-3.34-.02-5.25,.7-6.74,4.17-6.29,14.61-13.04,29.02-19.61,43.51-1.32,2.92-2.71,4.58-4.64,.42,4.61-6.54,7.11-14.13,10.51-21.26,4.19-8.8,8.04-17.77,11.95-26.7,1-2.29,2.54-3.17,5.03-3.16,22.11,.06,44.21,.02,66.32,.08,2.78,0,5.9,.26,2.29,4.07Z"/>
      <path class="cls-2" d="M279.88,175.85c4.02-.2,8.05-.39,13.15-.64-4.87,2.21-8.46,4.9-13.21,4.36,.02-1.24,.04-2.48,.06-3.72Z"/>
      <path class="cls-38" d="M365.65,298.81c-.02,.28-.03,.56-.04,.85-7.67,.03-15.35,.05-23.02,.08,4.74-2.19,9.74-.59,14.61-.97,2.8-.22,5.63,.02,8.45,.05Z"/>
      <path class="cls-54" d="M414.02,155.4h-56.67c0-.35,0-.7,0-1.06h56.66c0,.35,0,.7,0,1.06Z"/>
      <path class="cls-47" d="M397.92,126.05h-46.86c0-.32,0-.64,0-.96h46.85c0,.32,0,.64,0,.96Z"/>
      <path class="cls-15" d="M350.33,96.15c14.53-1.31,29.09-1.49,43.64,.65-14.54-.18-29.07,.35-43.64-.65Z"/>
      <path class="cls-69" d="M398.04,111.46h-34.88c0-.33-.01-.67-.02-1h34.91c0,.33,0,.67,0,1Z"/>
      <path class="cls-23" d="M388.27,140.65h-38.55c4.62-1.86,33.8-2.31,38.55,0Z"/>
      <path class="cls-24" d="M350.13,133.49c4.7-2.19,29.57-1.85,34.07,0h-34.07Z"/>
      <path class="cls-34" d="M381.96,89.47h-31.66c0-.36,0-.71-.01-1.07h31.63c.01,.36,.03,.71,.04,1.07Z"/>
      <path class="cls-68" d="M413.42,117.92c-5.25,1.29-53.95,1.17-58.07,0h58.07Z"/>
      <path class="cls-17" d="M404.94,162.68h-54.55c0-.24,0-.48,0-.72h54.52l.03,.72Z"/>
      <path class="cls-12" d="M411.54,103.66h-53.4c0-.24,0-.48,0-.71h53.28c.04,.24,.08,.48,.13,.71Z"/>
      <path class="cls-67" d="M350.18,147.1h38.67c0,.29,0,.59,0,.88h-38.67c0-.29,0-.59,0-.88Z"/>
      <path class="cls-27" d="M415.65,102.93c2.72-1.23,4.67-1.72,6.54-.1,.19,.16,.06,1.14-.18,1.27-2.1,1.18-4.03,.75-6.36-1.17Z"/>
      <path class="cls-8" d="M385.1,89c2.37-1.52,4.75-1.37,7.98-.34-3.1,1.82-5.55,1.29-7.98,.34Z"/>
      <path class="cls-43" d="M409.34,125.52c-3.32,1.64-5.26,1.52-7.84,.46,2.39-1.81,4.42-1.26,7.84-.46Z"/>
      <path class="cls-57" d="M347.21,103.97c2.88-1.89,4.79-1.17,7.7-.93-2.71,2.34-4.67,1.83-7.7,.93Z"/>
      <path class="cls-72" d="M397.1,139.68c-1.98,1.62-3.97,1.16-7.34,.57,3.27-1.96,5.31-1.37,7.34-.57Z"/>
      <path class="cls-52" d="M400.51,110.84c3.31-1.49,5.27-.97,8.26-.99-2.8,2.62-4.82,1.87-8.26,.99Z"/>
      <path class="cls-55" d="M424.39,154.97c-2.89,1.08-4.67,1.22-7.08-.05,2.36-1.46,4.13-1.37,7.08,.05Z"/>
      <path class="cls-7" d="M354.22,154.54c-1.61,1.69-3.34,1.41-5.48,.71,1.77-2.47,3.75-.9,5.48-.71Z"/>
      <path class="cls-18" d="M397,96.63c2.67-1.36,4.46-1.24,6.68-.24-2.05,1.81-3.86,1.45-6.68,.24Z"/>
      <path class="cls-1" d="M341.88,96.39c2.59-2.08,4.33-1.51,7.1-.84-2.65,2.03-4.39,1.44-7.1,.84Z"/>
      <path class="cls-37" d="M349.29,88.44c-2.97,1.73-4.67,1.63-7.09,.42,2.24-1.58,4-1.13,7.09-.42Z"/>
      <path class="cls-50" d="M348.11,147.39c-2.37,1.53-3.88,1.39-6.39,.1,2.37-1.02,3.94-.88,6.39-.1Z"/>
      <path class="cls-53" d="M347.84,125.56c-2.22,1.5-3.71,1.4-6.1-.09,2.27-.97,3.78-1.03,6.1,.09Z"/>
      <path class="cls-51" d="M360.31,110.78c-2.7,1.4-4.31,1.15-6.56,.29,2.26-1.9,3.89-1.41,6.56-.29Z"/>
      <path class="cls-48" d="M348.31,132.8c-2.56,1.18-4.06,1.31-6.12,0,2.08-1.32,3.57-1.17,6.12,0Z"/>
      <path class="cls-58" d="M210.64,299.71c-2.04,5.15-6.44,2.37-9.85,2.94-2.93-3-6.75-1.88-10.27-2.25-4.46-.46-9.26,1.44-13.32-1.88-1.42-2.25-.49-4.6,.15-6.68,1.61-5.25,.74-11.21,4.53-15.82,.27-.09,.54-.18,.81-.27,6.62,.35,13.31-.61,19.87,1.01,7.1,3.94,13.83,8.49,21.14,12.09,4.09,2.02,7.85,3.4,12.15,1.02,3.49,.15,6.62,1.71,9.97,2.46,4.3,.97,4.82,2.84,2.49,7.11-1.82,1.04-3.83,1.05-5.82,1.07-8.98,.06-17.97,0-26.95,.03-1.68,0-3.32-.19-4.88-.84Z"/>
      <path class="cls-63" d="M235.68,244.79c3.62-4.69,7.24-9.39,10.87-14.08,.22-1.25,.44-2.49,2.23-1.77,.81,12.4,.16,24.81,.35,37.21,.07,4.47,.09,8.95-.03,13.41-.04,1.67,.92,3.84-1.42,4.8-2.09,.86-3.87,.08-5.38-1.44-.77-2.88-4.12-4.15-4.56-7.24,.03-9.27-1.87-18.36-2.51-27.57-.08-1.22,0-2.25,.45-3.32Z"/>
      <path class="cls-61" d="M237.73,275.68c1.77,1.55,4.28,2.39,4.89,5.06-3.93,2.31-7.46,4.94-8.01,9.97-1.26,1.63-2.76,3.41-4.94,2.36-9.54-4.58-19.56-8.4-27.11-16.31,7.84-1.86,15.81-.69,23.71-.98,3.81-.14,7.64-.07,11.45-.1Z"/>
      <path class="cls-13" d="M225.67,190.77c2.27,3.55,1.7,7.61,2.14,11.5,1.2,10.83,2.57,21.63,3.8,32.45,1.35,11.81,2.63,23.62,3.91,35.43,.1,.91,.51,1.95-1.87,3.68-2.3-28.29-6.4-55.52-8.02-83.03l.04-.04Z"/>
      <path class="cls-20" d="M150.48,272.73c1.82-6.02,1.89-12.38,3.9-18.41,.96-2.88,2.27-3.62,4.92-3.59,7.66,.08,15.33,.27,22.98-.06,4.76-.2,4.85,2.43,4.21,5.64-.84,4.22-1.83,8.44-3.07,12.55-.7,2.31-.78,4.56-.73,6.89,0,0-.03,.03-.03,.03-.78,.5-1.55,.62-2.33,0-1.86-2.68-.83-5.39-.03-8.08,3.95-13.32,3.95-13.36-9.72-13.29-3.95,.02-8.38-1.26-11.75,.68-3.77,2.18-1.99,7.33-3.55,10.92-1.37,3.14-.88,6.97-3.55,9.64-2.53-.06-1.73-1.56-1.25-2.91Z"/>
      <path class="cls-16" d="M109.69,243.75c-1.27-2.19-2.28-4.38-4.3-6.26-3.54-3.31-1.91-9.66,2.26-10.73,4.63-.45,6.15,1.42,5.28,6.1-.7,3.79,.29,7.97-3.25,10.89Z"/>
      <path class="cls-41" d="M225.63,190.81H107c2.31-1.48,3.98-1,5.55-1,35.97-.04,71.95-.04,107.92,0,1.76,0,3.7-.62,5.2,.96,0,0-.04,.04-.04,.04Z"/>
      <path class="cls-59" d="M117.97,228.09c2.26,.73,3.96,2.32,6.46-.28,1.92-1.99,5.01-1.48,7.44-.46,1.32,.55,1,2.4,.56,3.6-1.08,2.95-2.33,5.98-5.33,7.43-1.35,.65-2.29-.91-3.07-1.96-2.03-2.76-4.04-5.55-6.06-8.32Z"/>
      <path class="cls-66" d="M150.48,272.73c.18,1.04-.1,2.26,1.12,2.9,.14,.21,.29,.42,.43,.63,.77,7.52-2.33,14.31-4.09,21.35-.23,.46-.55,.85-.95,1.18-.5,.27-.96,.21-1.39-.15,.07-6.35,2.19-12.35,3.27-18.53,.81-4.6-1.37-4.74-4.43-4.17-4.97,.93-9.87,1.13-14.78-.15,1.1-1.38,2.6-1.92,4.3-2.02,5.51-.34,11.01-.69,16.52-1.03Z"/>
      <path class="cls-42" d="M102.75,278.82c-1.02,7.97-2.04,15.94-3.07,23.91-12.99,.01-25.98,.02-38.98,.04-.93-8-.82-16.12-3.1-23.95,1.58-1.88,3.8-1.87,5.93-1.89,11.09-.11,22.18-.11,33.27,0,2.13,.02,4.36,.01,5.93,1.89Z"/>
      <path class="cls-46" d="M210.64,299.71c2.78-1.64,5.82-.71,8.73-.76,9.77-.18,19.54-.17,29.32-.24,.42-.37,.88-.69,1.37-.97,2.75-.88,5.54-.6,8.34-.27,.85,.18,1.54,.65,2.2,1.2,3.69,0,7.39-.01,11.08-.02,5.33-3.19,10.66-2.25,15.99,0,11.01-.32,22.22,1.96,33.11-3.68-.47,2.7-2.39,2.18-3.3,3.61,2.84,.11,5.63,.35,5.06,4.17-7.19,1.89-14.51,.97-21.74,.63-3.47-.16-6.85-.07-10.3,0-13.25,.27-26.49,.58-39.76-.26-12.24-.77-24.56-.44-36.84-.2-2.95,.06-3.39-.9-3.25-3.22Z"/>
      <path class="cls-66" d="M177.52,297.72c6.26,2.33,12.75,.69,19.12,.99,2.92,.14,4.41,.89,4.15,3.94-8,1.36-16.09,1.04-24.15,1.09-9.06-.32-18.13-.02-27.19,.02-3.8,.02-4.92-1.35-3.05-4.78l.29-.27c1.7-1.63,3.86-1.68,6-1.69,7.72-.03,15.44-.06,23.16-.12,.62,.13,1.18,.41,1.66,.83Z"/>
      <path class="cls-60" d="M146.41,298.98c0,2.14-.28,3.99,3.16,3.83,7.1-.33,14.23-.14,21.34-.06,2.11,.02,3.93-.33,5.12-2.27,1.15,.98,.5,2.19,.61,3.27-9.73,1.89-19.56,.4-29.33,.9-1.27,.07-2.09-.85-2.66-1.92,.28-1.37-.35-2.95,.95-4.08,.27,.11,.54,.22,.81,.34Z"/>
      <path class="cls-29" d="M102.75,278.82c-15.05,0-30.09,0-45.14,0-4.13-2.79-1.87-6.94-1.64-10.27,.21-3.08,3.73-1.56,5.81-1.78,5.97-.65,12.09,1.13,17.99-1.02,.32,0,.64,0,.96,0,6.05,2.2,12.32,.39,18.45,1.07,2.11,.23,5.48-1.38,6.03,1.49,.68,3.54,1.73,7.83-2.46,10.52Z"/>
      <path class="cls-26" d="M249.62,298.66l-.47,.06s-.47-.02-.47-.02c.43-3.63-.8-5.1-4.82-5.19-3.1-.06-6.16-1.81-9.24-2.81-1.38-6.02,1.16-9.2,8.01-9.97,.57,2.46,2.48,3.18,4.52,2.75,2.27-.48,1.44-2.69,1.45-4.19,.06-15.56,.04-31.11,.02-46.67,0-1.3,.25-2.67-.7-3.8-.26-.26-.45-.54-.35-.75,.25-.55,.72-.42,1.17-.28,1.46,1.55,.86,3.48,.87,5.24,.05,14.81,.02,29.62,.03,44.44,0,6.45,.37,7.41,7.02,7.05,8.1-.43,9.65,2,11.02,9.5,.22,1.18,1.88,2.97-.73,3.61-2.23,.55-3.69-.66-4-2.68-.5-3.33-2.1-5-5.83-4.97,.4,3.4,3.43,5.48,3.49,8.68-.65,.02-1.3,.04-1.95,.06-.49-.42-1.12-.64-1.62-1.04q-4.57-3.67-7.4,.97Z"/>
      <path class="cls-44" d="M287.66,298.65c-5.33,0-10.66,0-15.99,0,4.25-9.06,9.26-12.28,18.44-11.88,4.4,.19,7.48,2.92,7.43,6.98-.07,4.58-3.87,3.59-6.61,4-1.14,.17-2.35-.06-3.26,.9Z"/>
      <path class="cls-19" d="M336.75,242.75c1.68,4.81,3.35,9.63,5.05,14.44,1.31,3.69-1.97,7.68-5.83,7.11-1.08-.16-1.34-.89-1.31-1.73,.31-7.88-.83-15.8,.71-23.64,1.45,.92,2.05,2.14,1.38,3.82Z"/>
      <path class="cls-62" d="M336.75,242.75c-.46-1.27-.92-2.55-1.38-3.82-1.31-3.52-.98-7.12-.28-10.78,.46,4.88,3.1,9.46,1.65,14.6Z"/>
      <path class="cls-31" d="M248.72,227.8c-.27,.34-.54,.68-.81,1.03-.45,.63-.91,1.25-1.37,1.88-1.73-2.99,1.61-4.21,1.39-7.07,2.4,1.87,.96,3.01,.79,4.16Z"/>
      <path class="cls-35" d="M186.63,61.81h60.44c-2.64,5.21-6.55,7.05-11.71,7.02-12.15-.05-24.3,.16-36.44-.11-4.69-.1-6.49,1.24-6.37,6.17,.3,12.14,.11,24.29,.09,36.43,0,1.49,.2,3.08-.25,4.45-.81,2.51-2.07,6.13-4.55,5.87-2.67-.28-1.1-3.9-1.12-5.94-.16-17.97-.1-35.93-.11-53.9,0,0,0,0,0,0Z"/>
      <path class="cls-30" d="M156.77,121.71c-.72-4,1.14-8.22-2.24-11.94-1.68-1.85,.56-2.97,2.36-2.81,2.84,.25,3.74,2.29,3.8,4.93,.07,3.06-.84,6.39,2.43,8.62,.6,.41-3.19,14.98-3.91,15.42-1.34,.83-2.84,1.32-4.2,.32-1.57-1.15-.4-2.46,.32-3.45,2.56-3.5,.7-7.46,1.44-11.09Z"/>
      <path class="cls-36" d="M141.4,134.68c.15,1.41-.55,2-1.7,2.05-2.07,.08-4.43-.14-4.79-2.5-.65-4.3-2.11-8.86-2.26-12.6-.15-3.61,1.4-8.67,2.73-12.94,.77-2.5,3.37-2.39,5.04-1.53,2.4,1.24,.47,2.78-.54,3.93-1.23,1.4-1.37,3.03-1.18,4.67,.76,6.37-2.3,13.3,2.7,18.93Z"/>
      <path class="cls-33" d="M177.52,297.72c-.26,0-.52,.02-.78,.02-1.37-1.22-1.75-2.87-1.31-4.47,1.51-5.48,1.54-11.31,3.94-16.58,.35-.47,.79-.82,1.33-1.06,.66,.05,1.31,.1,1.97,.15-2.7,7.08-3.21,14.67-5.14,21.93Z"/>
      <path class="cls-11" d="M180.69,275.64c-.03,.4-.06,.79-.08,1.19-8.7,1.34-17.43,.65-26.16,.38-.99-.03-1.91-.5-2.62-1.26,0,0-.23-.32-.23-.32,1.36-6.76,2.83-13.49,4.02-20.28,.39-2.22,1.53-2.61,3.38-2.61,7.45,.03,14.91,.07,22.36-.02,3.64-.04,3.24,2.01,3.04,4.6-.49,6.27-4.04,11.89-3.7,18.31Z"/>
      <path class="cls-58" d="M151.83,275.95c8.16-.04,16.32-.07,24.47-.13,1.53-.01,2.99,.14,4.3,1.01-1.54,6.93-3.73,13.73-3.87,20.92-3.75,1.98-7.79,.9-11.7,1-6.11,.16-12.23-.01-18.34-.04,1.71-7.59,3.42-15.17,5.13-22.76Z"/>
      <path class="cls-70" d="M249.62,298.66c.49-1.99-1.4-5.16,2.01-5.7,4.11-.65,5.47,2.84,7,5.76-3.01-.02-6.01-.04-9.02-.06Z"/>
    </g>
  </g>
</svg>